<svg xmlns="http://www.w3.org/2000/svg" width="29" height="29" viewBox="0 0 29 29" fill="none">
  <path d="M14.2227 26.4336C12.5508 26.4336 10.9766 26.1133 9.5 25.4727C8.02344 24.8398 6.72266 23.9609 5.59766 22.8359C4.47266 21.7109 3.58984 20.4141 2.94922 18.9453C2.31641 17.4688 2 15.8906 2 14.2109C2 12.5391 2.31641 10.9688 2.94922 9.5C3.58984 8.02344 4.46875 6.72266 5.58594 5.59766C6.71094 4.47266 8.01172 3.59375 9.48828 2.96094C10.9648 2.32031 12.5391 2 14.2109 2C15.8828 2 17.457 2.32031 18.9336 2.96094C20.418 3.59375 21.7188 4.47266 22.8359 5.59766C23.9609 6.72266 24.8438 8.02344 25.4844 9.5C26.125 10.9688 26.4453 12.5391 26.4453 14.2109C26.4453 15.8906 26.125 17.4688 25.4844 18.9453C24.8438 20.4141 23.9609 21.7109 22.8359 22.8359C21.7188 23.9609 20.4219 24.8398 18.9453 25.4727C17.4688 26.1133 15.8945 26.4336 14.2227 26.4336ZM14.2227 23.75C15.543 23.75 16.7773 23.5039 17.9258 23.0117C19.082 22.5195 20.0977 21.8398 20.9727 20.9727C21.8477 20.0977 22.5312 19.0859 23.0234 17.9375C23.5156 16.7812 23.7617 15.5391 23.7617 14.2109C23.7617 12.8906 23.5117 11.6562 23.0117 10.5078C22.5195 9.35156 21.8359 8.33594 20.9609 7.46094C20.0938 6.58594 19.082 5.90234 17.9258 5.41016C16.7773 4.91797 15.5391 4.67188 14.2109 4.67188C12.8906 4.67188 11.6523 4.91797 10.4961 5.41016C9.34766 5.90234 8.33594 6.58594 7.46094 7.46094C6.59375 8.33594 5.91406 9.35156 5.42188 10.5078C4.9375 11.6562 4.69531 12.8906 4.69531 14.2109C4.69531 15.5391 4.9375 16.7812 5.42188 17.9375C5.91406 19.0859 6.59766 20.0977 7.47266 20.9727C8.34766 21.8398 9.35938 22.5195 10.5078 23.0117C11.6641 23.5039 12.9023 23.75 14.2227 23.75Z" fill="#CBD5E1"/>
</svg>
